.
..............................Site Info...........................

 -   http://www.scenetime.com  *_*   

SceneTime is going to Close sign up on march/1, hurry up! get in before the doors are closed.

     We care to share . Join us on  http://www.scenetime.com 

    Be the first to get new release at  http://www.scenetime.com

        Seed back for speed


...................................NFO:.................................................








































          
          
              
              
                    
                    
                    
                    

Underworld.Awakening.2012.TS.READNFO.XviD-SiC

Poster:
[img]http://i.imgur.com/Ak3I8.jpg[/img]

IMDB Link:
http://www.imdb.com/title/tt1496025/

Description:
When human forces discover the existence of the Vampire and Lycan clans, a war to eradicate both species commences. The vampire warrioress Selene leads the battle against humankind. 


General
Complete name                    : Underworld Awakening 2012 TS READNFO XviD - SiC.avi
Format                           : AVI
Format/Info                      : Audio Video Interleave
File size                        : 703 MiB
Duration                         : 1h 15mn
Overall bit rate                 : 1 305 Kbps
Writing library                  : VirtualDub build 30586/release

Video
ID                               : 0
Format                           : MPEG-4 Visual
Format profile                   : Advanced Simple@L5
Format settings, BVOP            : 2
Format settings, QPel            : No
Format settings, GMC             : No warppoints
Format settings, Matrix          : Default (H.263)
Muxing mode                      : Packed bitstream
Codec ID                         : XVID
Codec ID/Hint                    : XviD
Duration                         : 1h 15mn
Bit rate                         : 1 167 Kbps
Width                            : 680 pixels
Height                           : 288 pixels
Display aspect ratio             : 2.35:1
Frame rate                       : 25.000 fps
Color space                      : YUV
Chroma subsampling               : 4:2:0
Bit depth                        : 8 bits
Scan type                        : Progressive
Compression mode                 : Lossy
Bits/(Pixel*Frame)               : 0.238
Stream size                      : 628 MiB (89%)
Writing library                  : XviD 64

Audio
ID                               : 1
Format                           : MPEG Audio
Format version                   : Version 1
Format profile                   : Layer 3
Mode                             : Joint stereo
Mode extension                   : MS Stereo
Codec ID                         : 55
Codec ID/Hint                    : MP3
Duration                         : 1h 15mn
Bit rate mode                    : Constant
Bit rate                         : 128 Kbps
Channel(s)                       : 2 channels
Sampling rate                    : 44.1 KHz
Compression mode                 : Lossy
Stream size                      : 68.9 MiB (10%)
Alignment                        : Split accross interleaves
Interleave, duration             : 40 ms (1.00 video frame)
Writing library                  : LAME3.98r
Encoding settings                : -m j -V 4 -q 2 -lowpass 17 -b 128


Screenshots:
[img]http://i.imgur.com/ffJXV.png[/img]
[img]http://i.imgur.com/vXOae.png[/img]
[img]http://i.imgur.com/IXdXe.png[/img]
[img]http://i.imgur.com/gRS8F.png[/img]
[img]http://i.imgur.com/iRnQ7.png[/img]
[img]http://i.imgur.com/GJsYa.png[/img]
[img]http://i.imgur.com/mgNr6.png[/img]
[img]http://i.imgur.com/mhCIm.png[/img]


Note: For the video I resized, sharpened, adjusted whitebalance, and corrected slant. As for the READNFO there is 2 minutes of cam audio at start.

Source: Big thanks to LittlebirD for the audio and video I honestly don't know, a friend I'm sure so ty...

Enjoy!

Respects to T00NG0D, ELEKTRI4KA, PA, YeFsTe, MrRep and everyone in the struggle...RiP MU & BTJ